<?xml version="1.0"?>

<svg version="1.1" id="Vrstva_1" xmlns="http://www.w3.org/2000/svg" xmlns:xlink="http://www.w3.org/1999/xlink" x="0px" y="0px" viewBox="0 0 672 322" style="enable-background:new 0 0 672 322;" xml:space="preserve">
<g>
&#x9;<path fill="#0b0e16" d="M139.8,179.24c-9.85-26.48-28.75-39.64-18.19-71.4c-55.56,17.99,30.52,62.69,5.79,121.53&#xA;&#x9;&#x9;C138.99,215.74,145.83,196.96,139.8,179.24z"></path>
&#x9;<path fill="#0b0e16" d="M116.71,81.7c-2.97-0.95-4.9-1.51-6.78-2.18c-1.15-0.41-2.83-0.59-2.87-2.07c-0.05-1.68,1.68-2.04,2.96-2.5&#xA;&#x9;&#x9;c4.23-1.51,8.7-1.69,13.11-2.11c2.65-0.25,5.33-0.35,7.99-0.27c2.32,0.08,2.55-0.87,1.86-2.73c-0.88-2.38-1.7-4.77-2.5-7.18&#xA;&#x9;&#x9;c-0.35-1.07-0.85-2.26,0.17-3.2c0.93-0.85,1.96-0.15,2.84,0.24c5.45,2.39,11,4.58,16.12,7.66c8.98,5.4,11.9,12.4,9.85,23.35&#xA;&#x9;&#x9;c-1.06,5.65-1.08,5.89,4.44,6.25c10.67,0.69,15.93,7.16,18.69,17.03c-3.19-0.73-6.2-1.52-9.26-2.1&#xA;&#x9;&#x9;c-13.43-2.54-18.65,3.18-14.85,16.27c0.99,3.41,2.32,6.69,4,9.85c2.16,4.06,3.77,8.31,3.55,13.05c-0.27,5.82-4.01,9.69-9.85,10.03&#xA;&#x9;&#x9;c-5.04,0.3-9.45-1.52-13.54-4.24c-13.05-8.67-18.13-23.74-13.62-40.71c0.84-3.17,2.16-6.22,3.16-9.35&#xA;&#x9;&#x9;c1.87-5.86-0.31-8.86-6.39-8.83c-9.33,0.04-18.4,1.85-27.42,4.02c-1.6,0.38-3.22,0.75-4.84,0.97c-1.36,0.19-2.98,0.52-3.85-0.86&#xA;&#x9;&#x9;c-0.93-1.48,0.35-2.64,1.18-3.68c1.91-2.39,4.3-4.3,6.7-6.19C103.04,87.9,109.2,84.73,116.71,81.7z"></path>
&#x9;<path fill="#0b0e16" d="M103.88,107.13c0,0-21.42,16.05-0.98,47.49c20.44,31.44,35.75,72.59,4.08,98.4c0,0,15.05-23.06-9.69-59.94&#xA;&#x9;&#x9;C72.55,156.21,65.04,111.2,103.88,107.13z"></path>
</g>
<path fill="#0b0e16" d="M226.6,101.89h9.98v26.82l12.58-13.03h11.8l-13.7,13.31l15.25,22.9h-12.09l-9.98-16.18l-3.86,3.71v12.47h-9.98V101.89z"></path>
<path fill="#0b0e16" d="M285.55,114.7c11.45,0,18.83,7.56,18.83,19.12c0,11.49-7.38,19.05-18.83,19.05c-11.38,0-18.76-7.56-18.76-19.05&#xA;&#x9;C266.79,122.27,274.17,114.7,285.55,114.7z M285.55,145.38c6.82,0,8.85-5.74,8.85-11.56s-2.04-11.63-8.85-11.63&#xA;&#x9;c-6.75,0-8.78,5.81-8.78,11.63S278.81,145.38,285.55,145.38z"></path>
<path fill="#0b0e16" d="M312.75,101.89h9.98v18.84h0.21c2.53-4.13,6.89-6.02,10.61-6.02c10.61,0,13.28,5.95,13.28,14.92v22.27h-9.98v-20.45&#xA;&#x9;c0-5.95-1.69-8.89-6.39-8.89c-5.41,0-7.73,3.01-7.73,10.37v18.98h-9.98V101.89z"></path>
<path fill="#0b0e16" d="M390.39,151.89h-9.49v-5.04h-0.21c-2.53,4.13-6.89,6.02-11.1,6.02c-10.61,0-13.28-5.95-13.28-14.92v-22.27h9.98v20.45&#xA;&#x9;c0,5.95,1.69,8.89,6.39,8.89c5.41,0,7.73-3.01,7.73-10.37v-18.98h9.98V151.89z M376.48,110.64h-6.96l6.75-9.95h11.03L376.48,110.64z&#xA;&#x9;"></path>
<path fill="#0b0e16" d="M412.53,115.68h7.31v6.65h-7.31v17.93c0,3.36,0.84,4.2,4.22,4.2c1.12,0,2.18-0.07,3.09-0.28v7.77&#xA;&#x9;c-1.69,0.28-3.86,0.35-5.83,0.35c-6.18,0-11.45-1.33-11.45-8.61v-21.36h-6.04v-6.65h6.04v-10.86h9.98V115.68z"></path>
<path fill="#0b0e16" d="M254.49,212.81c-4,3.92-8.43,5.95-14.12,5.95c-9.06,0-16.23-5.53-16.23-14.99c0-7,5.34-11.77,11.24-14.5&#xA;&#x9;c-2.74-3.29-4.78-6.23-4.78-10.65c0-6.93,6.32-11.42,13.07-11.42c7.59,0,13.77,4.13,13.77,11.98c0,5.88-3.86,9.74-8.92,12.47&#xA;&#x9;l6.46,7.91c1.05-1.89,1.55-3.92,1.83-5.95h8.64c-0.49,4.48-2.04,8.75-4.85,12.33l10.19,11.84h-12.23L254.49,212.81z M240.65,195.72&#xA;&#x9;c-3.58,1.47-7.03,4.2-7.03,8.26c0,3.64,3.44,6.58,7.17,6.58c3.58,0,6.11-1.82,8.43-4.41L240.65,195.72z M244.16,173.87&#xA;&#x9;c-2.46,0-4.5,1.82-4.5,4.41c0,3.15,2.04,5.18,3.94,7.49c2.81-1.75,5.13-3.5,5.13-7.14C248.73,176.04,246.62,173.87,244.16,173.87z"></path>
<path fill="#0b0e16" d="M292.85,181.58h9.49v4.62h0.14c2.46-3.92,6.32-5.6,10.82-5.6c11.38,0,16.51,9.17,16.51,19.47c0,9.67-5.27,18.7-15.95,18.7&#xA;&#x9;c-4.43,0-8.43-1.89-10.89-5.46h-0.14v17.23h-9.98V181.58z M319.84,199.79c0-5.81-2.32-11.7-8.71-11.7c-6.54,0-8.64,5.81-8.64,11.7&#xA;&#x9;c0,5.88,2.25,11.49,8.71,11.49C317.73,211.27,319.84,205.67,319.84,199.79z"></path>
<path fill="#0b0e16" d="M337.26,192.71c0.56-9.24,8.92-12.12,17.07-12.12c7.24,0,15.95,1.61,15.95,10.3v18.84c0,3.29,0.35,6.58,1.27,8.05h-10.12&#xA;&#x9;c-0.35-1.12-0.63-2.31-0.7-3.5c-3.16,3.29-7.73,4.48-12.23,4.48c-6.96,0-12.37-3.43-12.37-10.86c0.14-16.46,24.59-7.63,24.17-15.76&#xA;&#x9;c0-4.2-2.95-4.9-6.46-4.9c-3.86,0-6.25,1.54-6.6,5.46H337.26z M360.31,200.07c-1.69,1.47-5.2,1.54-8.29,2.1&#xA;&#x9;c-3.09,0.56-5.9,1.68-5.9,5.32c0,3.64,2.88,4.62,6.11,4.62c7.8,0,8.08-6.09,8.08-8.33V200.07z"></path>
<path fill="#0b0e16" d="M379.92,181.58h9.49v6.72h0.14c1.9-4.55,6.6-7.7,11.59-7.7c0.77,0,1.48,0.14,2.18,0.35v9.25c-0.91-0.21-2.39-0.35-3.58-0.35&#xA;&#x9;c-7.38,0-9.84,5.18-9.84,11.63v16.32h-9.98V181.58z"></path>
<path fill="#0b0e16" d="M425.8,181.58h7.31v6.65h-7.31v17.93c0,3.36,0.84,4.2,4.22,4.2c1.12,0,2.18-0.07,3.09-0.28v7.77&#xA;&#x9;c-1.69,0.28-3.86,0.35-5.83,0.35c-6.18,0-11.45-1.33-11.45-8.61v-21.36h-6.04v-6.65h6.04v-10.86h9.98V181.58z"></path>
<path fill="#0b0e16" d="M439.78,181.58h9.49v5.04h0.21c2.53-4.13,6.89-6.02,11.1-6.02c10.61,0,13.28,5.95,13.28,14.92v22.27h-9.98v-20.45&#xA;&#x9;c0-5.95-1.69-8.89-6.39-8.89c-5.41,0-7.73,3.01-7.73,10.37v18.98h-9.98V181.58z"></path>
<path fill="#0b0e16" d="M491.57,202.1c0.28,6.37,3.3,9.17,8.92,9.17c4.01,0,7.24-2.45,7.87-4.69h8.78c-2.81,8.61-8.78,12.19-17,12.19&#xA;&#x9;c-11.45,0-18.55-7.84-18.55-19.05c0-10.86,7.52-19.12,18.55-19.12c12.37,0,18.41,10.37,17.64,21.5H491.57z M507.8,195.79&#xA;&#x9;c-0.91-5.04-3.09-7.7-7.94-7.7c-6.46,0-8.08,4.9-8.29,7.7H507.8z"></path>
<path fill="#0b0e16" d="M525.58,181.58h9.49v6.72h0.14c1.9-4.55,6.6-7.7,11.59-7.7c0.77,0,1.48,0.14,2.18,0.35v9.25c-0.91-0.21-2.39-0.35-3.58-0.35&#xA;&#x9;c-7.38,0-9.84,5.18-9.84,11.63v16.32h-9.98V181.58z"></path>
<path fill="#0b0e16" d="M562.54,206.02c0,4.27,3.79,6.09,7.66,6.09c2.81,0,6.54-1.12,6.54-4.62c0-3.01-4.22-4.13-11.31-5.6&#xA;&#x9;c-5.83-1.33-11.52-3.22-11.52-9.67c0-9.24,8.01-11.63,15.81-11.63c7.87,0,15.25,2.66,16.02,11.56h-9.49&#xA;&#x9;c-0.28-3.85-3.23-4.9-6.82-4.9c-2.25,0-5.55,0.35-5.55,3.36c0,3.57,5.69,4.06,11.31,5.39c5.83,1.33,11.52,3.43,11.52,10.16&#xA;&#x9;c0,9.53-8.36,12.61-16.58,12.61c-8.43,0-16.72-3.15-17.07-12.75H562.54z"></path>
</svg>