<?xml version="1.0"?>
<svg id="Vrstva_1" data-name="Vrstva 1" xmlns="http://www.w3.org/2000/svg" viewBox="0 0 509.97 193.95">
  <defs>
    
  </defs>
  <g>
    <path fill="#ffffff" d="M63.06,120.18c-9.85-26.48-28.75-39.64-18.19-71.4-55.56,17.99,30.52,62.69,5.79,121.53,11.59-13.64,18.43-32.41,12.4-50.13Z"></path>
    <path fill="#ffffff" d="M39.97,22.63c-2.97-.95-4.9-1.51-6.78-2.18-1.15-.41-2.83-.59-2.87-2.07-.05-1.68,1.68-2.04,2.96-2.5,4.23-1.51,8.7-1.69,13.11-2.11,2.65-.25,5.33-.35,7.99-.27,2.32,.08,2.55-.87,1.86-2.73-.88-2.38-1.7-4.77-2.5-7.18-.35-1.07-.85-2.26,.17-3.2,.93-.85,1.96-.15,2.84,.24,5.45,2.39,11,4.58,16.12,7.66,8.98,5.4,11.9,12.4,9.85,23.35-1.06,5.65-1.08,5.89,4.44,6.25,10.67,.69,15.93,7.16,18.69,17.03-3.19-.73-6.2-1.52-9.26-2.1-13.43-2.54-18.65,3.18-14.85,16.27,.99,3.41,2.32,6.69,4,9.85,2.16,4.06,3.77,8.31,3.55,13.05-.27,5.82-4.01,9.69-9.85,10.03-5.04,.3-9.45-1.52-13.54-4.24-13.05-8.67-18.13-23.74-13.62-40.71,.84-3.17,2.16-6.22,3.16-9.35,1.87-5.86-.31-8.86-6.39-8.83-9.33,.04-18.4,1.85-27.42,4.02-1.6,.38-3.22,.75-4.84,.97-1.36,.19-2.98,.52-3.85-.86-.93-1.48,.35-2.64,1.18-3.68,1.91-2.39,4.3-4.3,6.7-6.19,5.5-4.34,11.66-7.51,19.17-10.54Z"></path>
    <path fill="#ffffff" d="M27.14,48.06s-21.42,16.05-.98,47.49c20.44,31.44,35.75,72.59,4.08,98.4,0,0,15.05-23.06-9.69-59.94C-4.19,97.14-11.7,52.13,27.14,48.06Z"></path>
  </g>
  <path fill="#ffffff" d="M149.85,42.82h9.98v26.82l12.58-13.03h11.8l-13.7,13.31,15.25,22.9h-12.09l-9.98-16.18-3.86,3.71v12.47h-9.98V42.82Z"></path>
  <path fill="#ffffff" d="M208.81,55.64c11.45,0,18.83,7.56,18.83,19.12s-7.38,19.05-18.83,19.05-18.76-7.56-18.76-19.05,7.38-19.12,18.76-19.12Zm0,30.68c6.82,0,8.85-5.74,8.85-11.56s-2.04-11.63-8.85-11.63-8.78,5.81-8.78,11.63,2.04,11.56,8.78,11.56Z"></path>
  <path fill="#ffffff" d="M236,42.82h9.98v18.84h.21c2.53-4.13,6.89-6.02,10.61-6.02,10.61,0,13.28,5.95,13.28,14.92v22.27h-9.98v-20.45c0-5.95-1.69-8.89-6.39-8.89-5.41,0-7.73,3.01-7.73,10.37v18.98h-9.98V42.82Z"></path>
  <path fill="#ffffff" d="M313.65,92.83h-9.49v-5.04h-.21c-2.53,4.13-6.89,6.02-11.1,6.02-10.61,0-13.28-5.95-13.28-14.92v-22.27h9.98v20.45c0,5.95,1.69,8.89,6.39,8.89,5.41,0,7.73-3.01,7.73-10.37v-18.98h9.98v36.21Zm-13.91-41.25h-6.96l6.75-9.95h11.03l-10.82,9.95Z"></path>
  <path fill="#ffffff" d="M335.79,56.62h7.31v6.65h-7.31v17.93c0,3.36,.84,4.2,4.22,4.2,1.12,0,2.18-.07,3.09-.28v7.77c-1.69,.28-3.86,.35-5.83,.35-6.18,0-11.45-1.33-11.45-8.61v-21.36h-6.04v-6.65h6.04v-10.86h9.98v10.86Z"></path>
  <path fill="#ffffff" d="M177.75,153.75c-4,3.92-8.43,5.95-14.12,5.95-9.06,0-16.23-5.53-16.23-14.99,0-7,5.34-11.77,11.24-14.5-2.74-3.29-4.78-6.23-4.78-10.65,0-6.93,6.32-11.42,13.07-11.42,7.59,0,13.77,4.13,13.77,11.98,0,5.88-3.86,9.74-8.92,12.47l6.46,7.91c1.05-1.89,1.55-3.92,1.83-5.95h8.64c-.49,4.48-2.04,8.75-4.85,12.33l10.19,11.84h-12.23l-4.08-4.97Zm-13.84-17.09c-3.58,1.47-7.03,4.2-7.03,8.26,0,3.64,3.44,6.58,7.17,6.58s6.11-1.82,8.43-4.41l-8.57-10.44Zm3.51-21.85c-2.46,0-4.5,1.82-4.5,4.41,0,3.15,2.04,5.18,3.94,7.49,2.81-1.75,5.13-3.5,5.13-7.14,0-2.59-2.11-4.76-4.57-4.76Z"></path>
  <path fill="#ffffff" d="M216.11,122.51h9.49v4.62h.14c2.46-3.92,6.32-5.6,10.82-5.6,11.38,0,16.51,9.17,16.51,19.47,0,9.67-5.27,18.7-15.95,18.7-4.43,0-8.43-1.89-10.89-5.46h-.14v17.23h-9.98v-48.96Zm26.98,18.21c0-5.81-2.32-11.7-8.71-11.7s-8.64,5.81-8.64,11.7,2.25,11.49,8.71,11.49,8.64-5.6,8.64-11.49Z"></path>
  <path fill="#ffffff" d="M260.52,133.65c.56-9.24,8.92-12.12,17.07-12.12,7.24,0,15.95,1.61,15.95,10.3v18.84c0,3.29,.35,6.58,1.27,8.05h-10.12c-.35-1.12-.63-2.31-.7-3.5-3.16,3.29-7.73,4.48-12.23,4.48-6.96,0-12.37-3.43-12.37-10.86,.14-16.46,24.59-7.63,24.17-15.76,0-4.2-2.95-4.9-6.46-4.9-3.86,0-6.25,1.54-6.6,5.46h-9.98Zm23.05,7.35c-1.69,1.47-5.2,1.54-8.29,2.1-3.09,.56-5.9,1.68-5.9,5.32s2.88,4.62,6.11,4.62c7.8,0,8.08-6.09,8.08-8.33v-3.71Z"></path>
  <path fill="#ffffff" d="M303.17,122.51h9.49v6.72h.14c1.9-4.55,6.6-7.7,11.59-7.7,.77,0,1.48,.14,2.18,.35v9.25c-.91-.21-2.39-.35-3.58-.35-7.38,0-9.84,5.18-9.84,11.63v16.32h-9.98v-36.21Z"></path>
  <path fill="#ffffff" d="M349.05,122.51h7.31v6.65h-7.31v17.93c0,3.36,.84,4.2,4.22,4.2,1.12,0,2.18-.07,3.09-.28v7.77c-1.69,.28-3.86,.35-5.83,.35-6.18,0-11.45-1.33-11.45-8.61v-21.36h-6.04v-6.65h6.04v-10.86h9.98v10.86Z"></path>
  <path fill="#ffffff" d="M363.04,122.51h9.49v5.04h.21c2.53-4.13,6.89-6.02,11.1-6.02,10.61,0,13.28,5.95,13.28,14.92v22.27h-9.98v-20.45c0-5.95-1.69-8.89-6.39-8.89-5.41,0-7.73,3.01-7.73,10.37v18.98h-9.98v-36.21Z"></path>
  <path fill="#ffffff" d="M414.82,143.03c.28,6.37,3.3,9.17,8.92,9.17,4.01,0,7.24-2.45,7.87-4.69h8.78c-2.81,8.61-8.78,12.19-17,12.19-11.45,0-18.55-7.84-18.55-19.05s7.52-19.12,18.55-19.12c12.37,0,18.41,10.37,17.64,21.5h-26.21Zm16.23-6.3c-.91-5.04-3.09-7.7-7.94-7.7-6.46,0-8.08,4.9-8.29,7.7h16.23Z"></path>
  <path fill="#ffffff" d="M448.84,122.51h9.49v6.72h.14c1.9-4.55,6.6-7.7,11.59-7.7,.77,0,1.48,.14,2.18,.35v9.25c-.91-.21-2.39-.35-3.58-.35-7.38,0-9.84,5.18-9.84,11.63v16.32h-9.98v-36.21Z"></path>
  <path fill="#ffffff" d="M485.8,146.95c0,4.27,3.79,6.09,7.66,6.09,2.81,0,6.54-1.12,6.54-4.62,0-3.01-4.22-4.13-11.31-5.6-5.83-1.33-11.52-3.22-11.52-9.67,0-9.24,8.01-11.63,15.81-11.63s15.25,2.66,16.02,11.56h-9.49c-.28-3.85-3.23-4.9-6.82-4.9-2.25,0-5.55,.35-5.55,3.36,0,3.57,5.69,4.06,11.31,5.39,5.83,1.33,11.52,3.43,11.52,10.16,0,9.53-8.36,12.61-16.58,12.61s-16.72-3.15-17.07-12.75h9.49Z"></path>
</svg>