<?xml version="1.0"?>
<svg id="Vrstva_1" data-name="Vrstva 1" xmlns="http://www.w3.org/2000/svg" viewBox="0 0 253.44 322">
  <path fill="#0b0e16" d="M139.8,179.24c-9.85-26.48-28.75-39.64-18.19-71.4-55.56,17.99,30.52,62.69,5.79,121.53,11.59-13.64,18.43-32.41,12.4-50.13Z"></path>
  <path fill="#0b0e16" d="M116.71,81.7c-2.97-.95-4.9-1.51-6.78-2.18-1.15-.41-2.83-.59-2.87-2.07-.05-1.68,1.68-2.04,2.96-2.5,4.23-1.51,8.7-1.69,13.11-2.11,2.65-.25,5.33-.35,7.99-.27,2.32,.08,2.55-.87,1.86-2.73-.88-2.38-1.7-4.77-2.5-7.18-.35-1.07-.85-2.26,.17-3.2,.93-.85,1.96-.15,2.84,.24,5.45,2.39,11,4.58,16.12,7.66,8.98,5.4,11.9,12.4,9.85,23.35-1.06,5.65-1.08,5.89,4.44,6.25,10.67,.69,15.93,7.16,18.69,17.03-3.19-.73-6.2-1.52-9.26-2.1-13.43-2.54-18.65,3.18-14.85,16.27,.99,3.41,2.32,6.69,4,9.85,2.16,4.06,3.77,8.31,3.55,13.05-.27,5.82-4.01,9.69-9.85,10.03-5.04,.3-9.45-1.52-13.54-4.24-13.05-8.67-18.13-23.74-13.62-40.71,.84-3.17,2.16-6.22,3.16-9.35,1.87-5.86-.31-8.86-6.39-8.83-9.33,.04-18.4,1.85-27.42,4.02-1.6,.38-3.22,.75-4.84,.97-1.36,.19-2.98,.52-3.85-.86-.93-1.48,.35-2.64,1.18-3.68,1.91-2.39,4.3-4.3,6.7-6.19,5.5-4.34,11.66-7.51,19.17-10.54Z"></path>
  <path fill="#0b0e16" d="M103.88,107.13s-21.42,16.05-.98,47.49c20.44,31.44,35.75,72.59,4.08,98.4,0,0,15.05-23.06-9.69-59.94-24.74-36.87-32.25-81.88,6.59-85.95Z"></path>
</svg>